<svg width="64" height="64" viewBox="0 0 64 64" fill="none" xmlns="http://www.w3.org/2000/svg">
<path d="M8.96117 20.7305C7.85845 20.7305 6.92284 21.1151 6.15375 21.8842C5.38466 22.6533 5 23.5761 5 24.6533V41.1916C5 42.2957 5.38454 43.2305 6.15375 43.9997C6.92284 44.7688 7.85845 45.1535 8.96117 45.1535C10.0631 45.1535 10.993 44.7689 11.7502 43.9997C12.5059 43.2306 12.8847 42.2957 12.8847 41.1916V24.6533C12.8847 23.576 12.5002 22.6533 11.731 21.8842C10.9618 21.1151 10.0383 20.7305 8.96117 20.7305Z" fill="#A4C639"/>
<path d="M40.8077 5.8841L43.5385 0.846482C43.7177 0.512971 43.654 0.257225 43.3466 0.0773924C43.013 -0.0776753 42.7567 0.000900079 42.5775 0.307564L39.8085 5.38545C37.372 4.30819 34.795 3.76858 32.0775 3.76858C29.3594 3.76858 26.7822 4.30831 24.3465 5.38545L21.5774 0.307564C21.3975 0.000900079 21.1412 -0.0769809 20.8083 0.0773924C20.5003 0.258035 20.4365 0.512971 20.6165 0.846482L23.3474 5.8841C20.5783 7.29626 18.3729 9.26296 16.7319 11.7885C15.091 14.3154 14.2702 17.0767 14.2702 20.0774H49.8462C49.8462 17.0774 49.0252 14.316 47.3844 11.7885C45.7433 9.26296 43.5506 7.29626 40.8077 5.8841ZM25.0194 13.2114C24.724 13.5074 24.3713 13.6547 23.9613 13.6547C23.5505 13.6547 23.2049 13.5074 22.923 13.2114C22.6411 12.9168 22.5002 12.5654 22.5002 12.154C22.5002 11.744 22.6411 11.392 22.923 11.0967C23.2049 10.8021 23.5513 10.6547 23.9613 10.6547C24.3713 10.6547 24.724 10.8021 25.0194 11.0967C25.314 11.3927 25.462 11.744 25.462 12.154C25.4612 12.5647 25.3133 12.9168 25.0194 13.2114ZM41.2304 13.2114C40.9479 13.5074 40.6016 13.6547 40.1923 13.6547C39.7813 13.6547 39.4287 13.5074 39.134 13.2114C38.8388 12.9168 38.6915 12.5654 38.6915 12.154C38.6915 11.744 38.8388 11.392 39.134 11.0967C39.4287 10.8021 39.7813 10.6547 40.1923 10.6547C40.6023 10.6547 40.9478 10.8021 41.2304 11.0967C41.5125 11.3927 41.6533 11.744 41.6533 12.154C41.6533 12.5647 41.5124 12.9168 41.2304 13.2114Z" fill="#A4C639"/>
<path d="M14.4229 47.0762C14.4229 48.2568 14.8329 49.2562 15.653 50.0763C16.4739 50.8964 17.4732 51.3064 18.653 51.3064H21.4993L21.5383 60.0381C21.5383 61.1407 21.9229 62.077 22.692 62.8462C23.461 63.6154 24.3846 64 25.4611 64C26.5631 64 27.4993 63.6154 28.2685 62.8462C29.0377 62.077 29.4222 61.1408 29.4222 60.0381V51.3072H34.7297V60.0381C34.7297 61.1407 35.1142 62.077 35.8834 62.8462C36.6526 63.6154 37.5879 64 38.6908 64C39.7928 64 40.729 63.6154 41.4982 62.8462C42.2674 62.077 42.6518 61.1408 42.6518 60.0381V51.3072H45.5366C46.6902 51.3072 47.6767 50.8971 48.4983 50.077C49.3184 49.2569 49.7286 48.2575 49.7286 47.077V21.4606H14.4229V47.0762Z" fill="#A4C639"/>
<path d="M55.1923 20.7305C54.115 20.7305 53.1923 21.1094 52.4231 21.8651C51.654 22.6221 51.2694 23.5521 51.2694 24.6533V41.1916C51.2694 42.2957 51.6539 43.2305 52.4231 43.9997C53.1923 44.7689 54.1157 45.1535 55.1923 45.1535C56.2943 45.1535 57.2305 44.7689 57.9997 43.9997C58.7689 43.2305 59.1533 42.2957 59.1533 41.1916V24.6533C59.1533 23.552 58.7689 22.6221 57.9997 21.8651C57.2305 21.1094 56.2943 20.7305 55.1923 20.7305Z" fill="#A4C639"/>
</svg>
