<svg width="64" height="64" viewBox="0 0 64 64" fill="none" xmlns="http://www.w3.org/2000/svg">
<path d="M56.6099 49.0353C55.6875 51.1661 54.5958 53.1275 53.3308 54.9308C51.6066 57.3892 50.1948 59.0908 49.1068 60.0358C47.4202 61.5868 45.6132 62.3812 43.6781 62.4263C42.2889 62.4263 40.6137 62.031 38.6635 61.2292C36.707 60.431 34.909 60.0358 33.2649 60.0358C31.5407 60.0358 29.6915 60.431 27.7135 61.2292C25.7325 62.031 24.1367 62.4489 22.9165 62.4903C21.0609 62.5694 19.2113 61.7525 17.3651 60.0358C16.1867 59.008 14.7129 57.2461 12.9472 54.7501C11.0528 52.0847 9.49535 48.9939 8.2752 45.4701C6.96847 41.664 6.31342 37.9783 6.31342 34.4101C6.31342 30.3228 7.19662 26.7975 8.96565 23.8434C10.356 21.4705 12.2056 19.5987 14.5205 18.2246C16.8354 16.8504 19.3367 16.1502 22.0303 16.1054C23.5042 16.1054 25.437 16.5613 27.8389 17.4573C30.234 18.3563 31.7719 18.8122 32.4461 18.8122C32.9502 18.8122 34.6586 18.2791 37.5548 17.2164C40.2937 16.2308 42.6052 15.8227 44.4988 15.9834C49.6301 16.3975 53.4852 18.4203 56.049 22.0646C51.4598 24.8452 49.1897 28.7397 49.2348 33.7359C49.2762 37.6275 50.688 40.8659 53.4626 43.4372C54.72 44.6306 56.1242 45.5529 57.6866 46.208C57.3478 47.1906 56.9901 48.1317 56.6099 49.0353ZM44.8414 2.72563C44.8414 5.77584 43.7271 8.6238 41.5059 11.2598C38.8254 14.3936 35.5833 16.2044 32.0674 15.9187C32.0226 15.5527 31.9966 15.1676 31.9966 14.7629C31.9966 11.8347 33.2713 8.70097 35.5351 6.13872C36.6652 4.8414 38.1026 3.7627 39.8456 2.9022C41.5849 2.05454 43.2301 1.58576 44.7774 1.50549C44.8226 1.91325 44.8414 2.32104 44.8414 2.7256V2.72563Z" fill="black"/>
</svg>
