<svg width="64" height="64" viewBox="0 0 64 64" fill="none" xmlns="http://www.w3.org/2000/svg">
<path d="M64 0H0V64H64V0Z" fill="#F7DF1E"/>
<path d="M42.9918 50.0002C44.2809 52.1051 45.9581 53.6523 48.9245 53.6523C51.4164 53.6523 53.0083 52.4069 53.0083 50.686C53.0083 48.6237 51.3727 47.8933 48.6299 46.6936L47.1264 46.0485C42.7866 44.1996 39.9035 41.8834 39.9035 36.9869C39.9035 32.4764 43.3402 29.0428 48.7111 29.0428C52.5349 29.0428 55.2838 30.3736 57.2648 33.858L52.5816 36.865C51.5505 35.0161 50.4381 34.2877 48.7111 34.2877C46.9496 34.2877 45.8332 35.4052 45.8332 36.865C45.8332 38.6692 46.9506 39.3996 49.5309 40.5171L51.0344 41.1611C56.1443 43.3524 59.0293 45.5863 59.0293 50.6088C59.0293 56.0234 54.7759 58.9897 49.0636 58.9897C43.4784 58.9897 39.87 56.3281 38.1044 52.8396L42.9918 50.0002ZM21.7468 50.5214C22.6916 52.1976 23.551 53.6147 25.6173 53.6147C27.5932 53.6147 28.8396 52.8416 28.8396 49.8357V29.3861H34.8536V49.9169C34.8536 56.1442 31.2026 58.9785 25.8733 58.9785C21.058 58.9785 18.2695 56.4866 16.8513 53.4852L21.7468 50.5214Z" fill="black"/>
</svg>
