<svg width="64" height="64" viewBox="0 0 64 64" fill="none" xmlns="http://www.w3.org/2000/svg">
<path d="M36.0312 33.9688H42.0312L32 24.0312L21.9688 33.9688H27.9688V42.0312H36.0312V33.9688ZM46.7188 28.0625C49.2812 28.25 51.4688 29.3125 53.2812 31.25C55.0938 33.125 56 35.375 56 38C56 40.75 55 43.125 53 45.125C51.0625 47.0625 48.7188 48.0312 45.9688 48.0312H20C16.6875 48.0312 13.8438 46.875 11.4688 44.5625C9.15625 42.1875 8 39.3438 8 36.0312C8 32.9688 9.03125 30.3125 11.0938 28.0625C13.1562 25.75 15.6875 24.4375 18.6875 24.125C20 21.6875 21.8438 19.7188 24.2188 18.2188C26.5938 16.7188 29.1875 15.9688 32 15.9688C35.625 15.9688 38.8125 17.125 41.5625 19.4375C44.3125 21.6875 46.0312 24.5625 46.7188 28.0625Z" fill="black"/>
</svg>
